<svg width="25" height="24" viewBox="0 0 25 24" fill="none" xmlns="http://www.w3.org/2000/svg">
<path fill-rule="evenodd" clip-rule="evenodd" d="M12.293 0C5.66555 0 0.292969 5.37258 0.292969 12C0.292969 18.6274 5.66555 24 12.293 24C18.9204 24 24.293 18.6274 24.293 12C24.293 5.37258 18.9204 0 12.293 0ZM9.65422 5.63828C10.3369 5.60721 10.555 5.59961 12.2932 5.59961H12.2912C14.0299 5.59961 14.2472 5.60721 14.9299 5.63828C15.6112 5.66948 16.0766 5.77734 16.4846 5.93561C16.9059 6.09895 17.2619 6.31762 17.6179 6.67362C17.9739 7.02936 18.1926 7.38643 18.3566 7.80737C18.5139 8.2143 18.6219 8.67937 18.6539 9.36071C18.6846 10.0434 18.6926 10.2615 18.6926 11.9997C18.6926 13.7378 18.6846 13.9554 18.6539 14.6381C18.6219 15.3192 18.5139 15.7844 18.3566 16.1915C18.1926 16.6123 17.9739 16.9693 17.6179 17.3251C17.2623 17.6811 16.9058 17.9003 16.485 18.0637C16.0778 18.222 15.6121 18.3299 14.9308 18.3611C14.2481 18.3921 14.0307 18.3997 12.2924 18.3997C10.5544 18.3997 10.3364 18.3921 9.65368 18.3611C8.97248 18.3299 8.50727 18.222 8.10007 18.0637C7.6794 17.9003 7.32233 17.6811 6.96672 17.3251C6.61085 16.9693 6.39218 16.6123 6.22858 16.1913C6.07045 15.7844 5.96258 15.3193 5.93125 14.638C5.90031 13.9553 5.89258 13.7378 5.89258 11.9997C5.89258 10.2615 5.90058 10.0433 5.93111 9.36058C5.96178 8.67951 6.06978 8.2143 6.22845 7.80723C6.39245 7.38643 6.61112 7.02936 6.96712 6.67362C7.32286 6.31775 7.67993 6.09908 8.10087 5.93561C8.5078 5.77734 8.97288 5.66948 9.65422 5.63828Z" fill="white"/>
<path fill-rule="evenodd" clip-rule="evenodd" d="M11.7195 6.75551C11.8309 6.75533 11.9509 6.75539 12.0803 6.75544L12.2936 6.75551C14.0024 6.75551 14.2049 6.76164 14.8798 6.79231C15.5038 6.82084 15.8424 6.92511 16.068 7.01271C16.3667 7.12871 16.5796 7.26738 16.8035 7.49138C17.0275 7.71538 17.1662 7.92872 17.2824 8.22739C17.37 8.45272 17.4745 8.79139 17.5029 9.4154C17.5335 10.0901 17.5402 10.2927 17.5402 12.0008C17.5402 13.7088 17.5335 13.9114 17.5029 14.5861C17.4743 15.2101 17.37 15.5488 17.2824 15.7741C17.1664 16.0728 17.0275 16.2855 16.8035 16.5093C16.5795 16.7333 16.3668 16.872 16.068 16.988C15.8427 17.076 15.5038 17.18 14.8798 17.2085C14.2051 17.2392 14.0024 17.2459 12.2936 17.2459C10.5846 17.2459 10.3821 17.2392 9.70744 17.2085C9.08343 17.1797 8.74476 17.0755 8.51902 16.9879C8.22035 16.8719 8.00702 16.7332 7.78302 16.5092C7.55901 16.2852 7.42035 16.0724 7.30408 15.7736C7.21648 15.5483 7.11208 15.2096 7.08368 14.5856C7.05301 13.9109 7.04688 13.7082 7.04688 11.9992C7.04688 10.2901 7.05301 10.0885 7.08368 9.4138C7.11221 8.78979 7.21648 8.45112 7.30408 8.22552C7.42008 7.92685 7.55901 7.71352 7.78302 7.48951C8.00702 7.26551 8.22035 7.12684 8.51902 7.01058C8.74463 6.92257 9.08343 6.81857 9.70744 6.78991C10.2978 6.76324 10.5266 6.75524 11.7195 6.75391V6.75551ZM15.7094 7.81863C15.2854 7.81863 14.9414 8.16223 14.9414 8.58637C14.9414 9.01037 15.2854 9.35438 15.7094 9.35438C16.1334 9.35438 16.4774 9.01037 16.4774 8.58637C16.4774 8.16236 16.1334 7.81836 15.7094 7.81836V7.81863ZM9.00684 12.0015C9.00684 10.1865 10.4784 8.71492 12.2934 8.71484C14.1085 8.71484 15.5797 10.1865 15.5797 12.0015C15.5797 13.8166 14.1086 15.2876 12.2935 15.2876C10.4785 15.2876 9.00684 13.8166 9.00684 12.0015Z" fill="white"/>
<path d="M12.2935 9.86719C13.4717 9.86719 14.4269 10.8223 14.4269 12.0005C14.4269 13.1787 13.4717 14.1339 12.2935 14.1339C11.1152 14.1339 10.1602 13.1787 10.1602 12.0005C10.1602 10.8223 11.1152 9.86719 12.2935 9.86719Z" fill="white"/>
</svg>
