<svg width="24" height="24" viewBox="0 0 24 24" fill="none" xmlns="http://www.w3.org/2000/svg">
<path opacity="0.4" d="M9.58174 5.49171C10.0578 5.40377 10.495 5.70756 10.5856 6.17225C10.6762 6.63693 10.3715 7.09061 9.90839 7.18155C8.51413 7.45337 7.43756 8.53262 7.16468 9.93166V9.93266C7.087 10.3354 6.73246 10.6282 6.32414 10.6282C6.26937 10.6282 6.21459 10.6232 6.15882 10.6132C5.69573 10.5203 5.39098 10.0676 5.48161 9.60189C5.88893 7.51232 7.49731 5.89843 9.58174 5.49171Z" fill="white"/>
<path opacity="0.4" d="M9.64415 2.00793C9.86723 1.97595 10.0913 2.04191 10.2696 2.18381C10.4528 2.32771 10.5674 2.53557 10.5922 2.76841C10.645 3.23908 10.3054 3.66479 9.83536 3.71776C6.5937 4.07951 4.07407 6.60477 3.70957 9.85654C3.66077 10.2922 3.29528 10.621 2.85907 10.621C2.82621 10.621 2.79434 10.619 2.76147 10.615C2.53341 10.59 2.33025 10.4771 2.18684 10.2972C2.04443 10.1174 1.97969 9.89351 2.00559 9.66467C2.45972 5.60746 5.59979 2.45862 9.64415 2.00793Z" fill="white"/>
<path fill-rule="evenodd" clip-rule="evenodd" d="M12.9683 12.9724C8.97918 16.9604 8.07423 12.3467 5.53435 14.8848C3.08573 17.3328 1.67838 17.8232 4.78076 20.9247C5.16937 21.237 7.63839 24.9943 16.3154 16.3197C24.9935 7.644 21.2384 5.17244 20.926 4.78395C17.8161 1.67385 17.3341 3.08938 14.8855 5.53733C12.3456 8.0765 16.9573 8.98441 12.9683 12.9724Z" fill="white"/>
</svg>
