<svg width="25" height="24" viewBox="0 0 25 24" fill="none" xmlns="http://www.w3.org/2000/svg">
<circle cx="12.0977" cy="12" r="12" fill="white"/>
<path d="M8.24361 7.26386L15.0383 16.1408L15.1559 16.2945L15.3547 16.2899L16.8483 16.2552L17.5572 16.2388L17.1307 15.6953L10.2493 6.92569L10.1425 6.78961L9.96497 6.78045L8.55812 6.70784L7.78757 6.66807L8.24361 7.26386ZM8.24361 7.26386L8.54435 7.0602L8.54435 7.0602L8.24361 7.26386Z" stroke="#09336A" stroke-width="0.726126"/>
<path d="M17.0182 4.59213L18.6718 4.67452L6.79487 19.6232L5.31186 19.1667L17.0182 4.59213Z" fill="#09336A"/>
<rect x="6.23242" y="3" width="13.8647" height="3.4126" fill="white"/>
<rect x="4.09766" y="16.5391" width="14.1865" height="4.59601" fill="white"/>
<path d="M11.3512 10.7165L12.2773 10.0944L13.8855 12.1413L13.0185 12.9045L11.3512 10.7165Z" fill="white"/>
</svg>
