<svg width="25" height="24" viewBox="0 0 25 24" fill="none" xmlns="http://www.w3.org/2000/svg">
<path fill-rule="evenodd" clip-rule="evenodd" d="M12.3906 0C5.76321 0 0.390625 5.37258 0.390625 12C0.390625 18.6274 5.76321 24 12.3906 24C19.018 24 24.3906 18.6274 24.3906 12C24.3906 5.37258 19.018 0 12.3906 0ZM17.391 7.87427C17.9418 8.02541 18.3755 8.47072 18.5227 9.03622C18.7902 10.0611 18.7902 12.1996 18.7902 12.1996C18.7902 12.1996 18.7902 14.338 18.5227 15.363C18.3755 15.9285 17.9418 16.3738 17.391 16.525C16.3929 16.7996 12.3902 16.7996 12.3902 16.7996C12.3902 16.7996 8.38754 16.7996 7.38936 16.525C6.8386 16.3738 6.40485 15.9285 6.25765 15.363C5.99023 14.338 5.99023 12.1996 5.99023 12.1996C5.99023 12.1996 5.99023 10.0611 6.25765 9.03622C6.40485 8.47072 6.8386 8.02541 7.38936 7.87427C8.38754 7.59961 12.3902 7.59961 12.3902 7.59961C12.3902 7.59961 16.3929 7.59961 17.391 7.87427Z" fill="white"/>
<path d="M11.1914 14.3984V10.3984L14.3914 12.3985L11.1914 14.3984Z" fill="white"/>
</svg>
